<svg data-v-423bf9ae="" xmlns="http://www.w3.org/2000/svg" viewBox="0 0 213.64985888732522 60" class="font"><!----><!----><defs data-v-423bf9ae=""><linearGradient data-v-423bf9ae="" gradientTransform="rotate(25)" id="b607530d-3693-4da8-9086-f805f1286972" x1="0%" y1="0%" x2="100%" y2="0%"><stop data-v-423bf9ae="" offset="0%" style="stop-color: rgb(235, 110, 0); stop-opacity: 1;"></stop><stop data-v-423bf9ae="" offset="100%" style="stop-color: rgb(243, 188, 230); stop-opacity: 1;"></stop></linearGradient></defs><g data-v-423bf9ae="" id="462b00df-5d55-41ea-9cfe-c2dac284c0a0" fill="url(#b607530d-3693-4da8-9086-f805f1286972)" transform="matrix(5.934718132019043,0,0,5.934718132019043,-3.976259708404541,-3.5608294010162354)"><path d="M0.67 5.84C0.67 7.64 1.39 9.09 2.41 9.81C3.47 10.56 4.70 10.71 5.94 10.71C6.92 10.71 8.27 10.40 9.16 10.12L9.16 7.36C9.16 6.66 9.23 6.59 10.15 6.50L10.15 6.09L6.29 6.09L6.29 6.50C7.70 6.59 7.77 6.68 7.77 7.36L7.77 9.25C7.77 9.74 7.59 9.90 7.29 10.01C6.93 10.15 6.54 10.22 6.06 10.22C2.84 10.22 2.24 7.36 2.24 5.61C2.24 3.40 3.12 1.09 5.88 1.09C7.42 1.09 8.32 1.79 8.61 3.37L9.03 3.37L9.03 1.18C8.34 0.84 7.14 0.60 6.02 0.60C3.92 0.60 2.52 1.29 1.72 2.32C1.01 3.26 0.67 4.38 0.67 5.84ZM10.96 7.13C10.96 9.34 11.91 10.67 14.20 10.67C15.75 10.67 16.55 9.80 16.93 8.69L16.51 8.47C16.11 9.28 15.58 9.95 14.48 9.95C12.74 9.95 12.39 8.27 12.42 6.82L16.45 6.82C16.74 6.82 17.01 6.75 17.01 6.29C17.01 5.46 16.74 3.47 14.18 3.47C12.00 3.47 10.96 5.03 10.96 7.13ZM12.43 6.29C12.43 5.71 12.64 3.96 14.10 3.96C15.40 3.96 15.55 5.29 15.55 5.84C15.55 6.10 15.47 6.29 15.08 6.29ZM17.91 4.20L18.91 4.20L18.91 9.07C18.91 10.50 19.98 10.67 20.47 10.67C21.18 10.67 21.85 10.30 22.26 10.05L22.15 9.76C21.81 9.90 21.50 9.94 21.15 9.94C20.68 9.94 20.23 9.60 20.23 8.54L20.23 4.20L22.04 4.20L22.04 3.64L20.23 3.64L20.23 1.88L19.82 1.88L18.97 3.64L17.91 3.64ZM22.95 8.16L23.09 10.00C23.59 10.44 24.44 10.67 25.27 10.67C26.94 10.67 27.89 9.79 27.89 8.60C27.89 7.36 27.13 6.80 25.69 6.36C25.12 6.17 24.19 5.88 24.19 5.10C24.19 4.37 24.75 3.96 25.45 3.96C26.45 3.96 26.92 4.73 27.02 5.59L27.43 5.59L27.43 3.95C26.96 3.61 26.25 3.47 25.62 3.47C24.11 3.47 23.07 4.19 23.07 5.52C23.07 6.68 24.02 7.20 25.19 7.55C25.82 7.74 26.70 8.06 26.70 9.02C26.70 9.73 26.14 10.18 25.40 10.18C24.26 10.18 23.63 9.35 23.35 8.16ZM28.76 4.17L29.29 4.24C29.65 4.30 29.74 4.37 29.74 4.87L29.74 8.57C29.74 10.18 30.69 10.67 31.72 10.67C32.91 10.67 33.88 9.86 34.29 9.66L34.43 10.50L36.67 10.50L36.67 10.09C35.70 10.02 35.62 10.00 35.62 9.28L35.62 3.56L35.52 3.47L33.32 3.82L33.32 4.17L33.85 4.24C34.22 4.30 34.30 4.37 34.30 4.87L34.30 8.02C34.30 8.41 34.26 8.72 34.19 8.86C33.87 9.51 33.19 9.91 32.47 9.91C31.65 9.91 31.05 9.41 31.05 8.32L31.05 3.56L30.95 3.47L28.76 3.82Z"></path></g><!----><!----></svg>